<?xml version="1.0" standalone="no"?>
<!DOCTYPE svg PUBLIC "-//W3C//DTD SVG 20010904//EN"
 "http://www.w3.org/TR/2001/REC-SVG-20010904/DTD/svg10.dtd">
<svg version="1.0" xmlns="http://www.w3.org/2000/svg"
 width="100.000000pt" height="100.000000pt" viewBox="0 0 500.000000 500.000000"
 preserveAspectRatio="xMidYMid meet" >

<g transform="translate(0.000000,500.000000) scale(0.100000,-0.100000)"
fill="#000000" stroke="none">
<path d="M1990 3083 c-143 -24 -254 -104 -308 -223 -22 -45 -26 -70 -26 -145
-1 -160 48 -245 177 -305 36 -18 156 -53 267 -81 223 -54 272 -74 296 -121 20
-38 14 -100 -13 -136 -61 -81 -267 -105 -390 -46 -61 29 -87 62 -104 127 l-11
47 -119 0 c-66 0 -120 -4 -124 -10 -12 -19 17 -136 48 -193 77 -145 236 -217
480 -217 162 0 295 43 385 125 103 92 142 287 85 417 -53 118 -123 155 -438
234 -209 52 -233 60 -262 90 -29 28 -33 39 -33 84 0 46 4 56 33 85 90 90 309
82 390 -14 14 -18 32 -50 38 -71 l12 -40 125 0 125 0 -6 44 c-24 171 -156 308
-335 345 -50 10 -238 13 -292 4z"/>
<path d="M2852 2588 c4 -528 4 -526 76 -628 46 -67 122 -121 211 -152 57 -20
85 -23 216 -23 131 0 158 3 218 23 133 46 217 128 259 252 22 63 23 81 26 533
l3 467 -135 0 -135 0 -3 -457 c-3 -442 -4 -459 -24 -498 -32 -62 -97 -97 -189
-103 -90 -6 -146 12 -193 61 -61 63 -62 74 -62 558 l0 439 -136 0 -135 0 3
-472z"/>
<path d="M4110 2435 l0 -625 130 0 130 0 0 625 0 625 -130 0 -130 0 0 -625z"/>
<path d="M646 2713 c9 -16 78 -119 152 -229 l134 -202 -149 -223 c-82 -123
-153 -230 -157 -236 -6 -10 25 -13 141 -13 l148 0 75 135 c41 74 78 135 82
135 4 0 41 -61 84 -135 l76 -135 150 0 c117 0 148 3 142 13 -4 6 -75 113 -157
236 l-149 224 151 223 c83 123 151 226 151 229 0 3 -64 4 -142 3 l-143 -3 -68
-120 c-37 -66 -72 -126 -76 -134 -5 -9 -33 29 -87 123 l-79 136 -149 0 -148 0
18 -27z"/>
</g>
</svg>
