<svg width="32" height="32" viewBox="0 0 32 32" fill="none" xmlns="http://www.w3.org/2000/svg">
<rect width="32" height="32" rx="16" fill="#6FBCF0"/>
<path fill-rule="evenodd" clip-rule="evenodd" d="M20.7431 13.8933L20.7427 13.8942C21.6107 14.9826 22.1295 16.3612 22.1295 17.8606C22.1295 19.3823 21.5952 20.7795 20.7037 21.8753L20.627 21.9697L20.6067 21.8498C20.5893 21.7478 20.569 21.6448 20.5454 21.541C20.0992 19.5809 18.6456 17.9 16.2533 16.539C14.6377 15.6225 13.713 14.5188 13.4702 13.2649C13.3134 12.4541 13.43 11.6397 13.6553 10.9421C13.8805 10.2447 14.2155 9.66047 14.5001 9.30871L15.431 8.17051C15.5942 7.97094 15.8996 7.97094 16.0628 8.17051L20.7431 13.8933ZM22.2151 12.7563L15.9774 5.12866C15.8583 4.98303 15.6354 4.98303 15.5163 5.12866L9.2784 12.756L9.25827 12.7816C8.11039 14.206 7.42346 16.0162 7.42346 17.9867C7.42346 22.576 11.1499 26.2965 15.7468 26.2965C20.3438 26.2965 24.0702 22.576 24.0702 17.9867C24.0702 16.0162 23.3833 14.206 22.2355 12.7816L22.2151 12.7563ZM10.7709 13.8687L11.3291 13.1862L11.346 13.3121C11.3593 13.4119 11.3755 13.5122 11.3947 13.6129C11.7558 15.507 13.0454 17.0864 15.2015 18.3096C17.0757 19.3762 18.1669 20.6028 18.4813 21.9481C18.6124 22.5095 18.6359 23.0618 18.579 23.5448L18.5755 23.5747L18.5485 23.5879C17.7026 24.0011 16.7517 24.2331 15.7466 24.2331C12.2216 24.2331 9.36386 21.3801 9.36386 17.8606C9.36386 16.3495 9.89067 14.961 10.7709 13.8687Z" fill="white"/>
</svg>
